<svg width="200" height="200" viewBox="0 0 200 200" fill="none" xmlns="http://www.w3.org/2000/svg">
<path d="M10.5 33V181L69.5 164L126.5 181L192.5 164V17L126.5 33L69.5 17L10.5 33Z" stroke="#2B6777" stroke-width="5"/>
<path d="M20 168V69.0485L67 56V155.495L20 168Z" fill="#52AB98" stroke="#52AB98"/>
<path d="M96 63L70 56V155L96 163V63Z" fill="#52AB98" stroke="#52AB98"/>
<path d="M31.5 37L19.5 40V64L31.5 61V37Z" fill="#52AB98" stroke="#52AB98"/>
<path d="M67 27L36 35.25V60L67 51.75V27Z" fill="#52AB98" stroke="#52AB98"/>
<path d="M125 44.85L70 27V51.675L125 69V44.85Z" fill="#52AB98" stroke="#52AB98"/>
<path d="M182 29L128 44.7895V69L182 53.2105V29Z" fill="#52AB98" stroke="#52AB98"/>
<path d="M125 72L101 65V116.5L125 129V72Z" fill="#52AB98" stroke="#52AB98"/>
<path d="M125 134.26L101 121V165.37L125 172V134.26Z" fill="#52AB98" stroke="#52AB98"/>
<path d="M182 57L128 71.5V130L182 114.5V57Z" fill="#52AB98" stroke="#52AB98"/>
<path d="M169 122.5L127.5 134V172L169 160.5V122.5Z" fill="#52AB98" stroke="#52AB98"/>
<path d="M182 119L172.5 121.5V160L182 157.5V119Z" fill="#52AB98" stroke="#52AB98"/>
</svg>
