<svg width="200" height="200" viewBox="0 0 200 200" fill="none" xmlns="http://www.w3.org/2000/svg">
<path d="M10.5 33V181L69.5 164L126.5 181L192.5 164V17L126.5 33L69.5 17L10.5 33Z" stroke="#2B6777" stroke-width="5"/>
<path d="M20 168V69.0485L67 56V155.495L20 168Z" fill="#52AB98" stroke="#52AB98"/>
<path d="M94 63.0654L70 56V155.925L94 164V63.0654Z" fill="#52AB98" stroke="#52AB98"/>
<path d="M31.5 37L19.5 40V64L31.5 61V37Z" fill="#52AB98" stroke="#52AB98"/>
<path d="M67 27L36 35.25V60L67 51.75V27Z" fill="#52AB98" stroke="#52AB98"/>
<path d="M125 44.85L70 27V51.675L125 69V44.85Z" fill="#52AB98" stroke="#52AB98"/>
<path d="M182 29L128 44.7895V69L182 53.2105V29Z" fill="#52AB98" stroke="#52AB98"/>
<path d="M125 72L97 65V116.5L125 129V72Z" fill="#52AB98" stroke="#52AB98"/>
<path d="M125 134.26L97 121V165.37L125 172V134.26Z" fill="#52AB98" stroke="#52AB98"/>
<path d="M182 57L128 71.5V130L182 114.5V57Z" fill="#52AB98" stroke="#52AB98"/>
<path d="M169 122.5L127.5 134V172L169 160.5V122.5Z" fill="#52AB98" stroke="#52AB98"/>
<path d="M182 119L172.5 121.5V160L182 157.5V119Z" fill="#52AB98" stroke="#52AB98"/>
<path d="M34.1478 108.216L30.1164 109.221L41.7765 73.5867L45.7459 72.597L57.406 102.417L53.3745 103.422L43.8852 78.2385L43.6371 78.3003L34.1478 108.216ZM35.6363 95.0608L51.886 91.0093V94.5249L35.6363 98.5764V95.0608Z" fill="white"/>
<path d="M135.977 115.467V93.6485L139.23 92.8376V114.656L135.977 115.467ZM137.631 89.5998C136.997 89.7579 136.45 89.6717 135.991 89.3411C135.541 89.0083 135.315 88.5294 135.315 87.9044C135.315 87.2794 135.541 86.6882 135.991 86.1309C136.45 85.5713 136.997 85.2124 137.631 85.0544C138.265 84.8963 138.807 84.9837 139.257 85.3165C139.717 85.647 139.946 86.1248 139.946 86.7498C139.946 87.3748 139.717 87.9671 139.257 88.5267C138.807 89.084 138.265 89.4417 137.631 89.5998ZM148.44 99.2344V112.359L145.187 113.17V91.3522L148.33 90.5687V93.9778L148.605 93.909C149.102 92.6774 149.855 91.5994 150.866 90.675C151.876 89.7412 153.181 89.075 154.78 88.6764C156.213 88.319 157.468 88.3093 158.543 88.6473C159.618 88.9759 160.454 89.6765 161.051 90.7492C161.648 91.8124 161.947 93.272 161.947 95.1281V108.992L158.694 109.803V96.1663C158.694 94.4523 158.262 93.2248 157.399 92.4837C156.535 91.7331 155.35 91.5457 153.843 91.9214C152.804 92.1803 151.876 92.6437 151.059 93.3116C150.25 93.9772 149.611 94.8135 149.143 95.8205C148.674 96.8275 148.44 97.9654 148.44 99.2344ZM167.891 107.51V85.6916L171.143 84.8806V106.699L167.891 107.51ZM169.545 81.6429C168.911 81.8009 168.364 81.7147 167.904 81.3842C167.454 81.0513 167.229 80.5724 167.229 79.9474C167.229 79.3224 167.454 78.7313 167.904 78.1739C168.364 77.6143 168.911 77.2555 169.545 77.0974C170.179 76.9393 170.721 77.0267 171.171 77.3595C171.63 77.69 171.86 78.1678 171.86 78.7928C171.86 79.4178 171.63 80.0101 171.171 80.5697C170.721 81.1271 170.179 81.4848 169.545 81.6429Z" fill="white"/>
<path d="M99.5228 107.918V88.8273L102.186 89.7965V92.7795L102.419 92.8645C102.793 91.9813 103.396 91.4097 104.23 91.1495C105.063 90.881 106.063 90.9593 107.231 91.3844C108.415 91.8151 109.4 92.4595 110.186 93.3174C110.98 94.17 111.599 95.1866 112.043 96.3673L112.23 96.4353C112.689 95.6165 113.378 95.0843 114.297 94.8386C115.216 94.5847 116.318 94.6916 117.602 95.1592C119.206 95.743 120.518 96.755 121.538 98.1951C122.558 99.627 123.068 101.466 123.068 103.711V116.488L120.312 115.485V102.708C120.312 101.299 119.95 100.161 119.226 99.2923C118.502 98.4239 117.649 97.8112 116.668 97.4541C115.407 96.995 114.43 97.0453 113.737 97.6051C113.044 98.1566 112.697 99.0497 112.697 100.284V112.713L109.894 111.693V98.6178C109.894 97.5323 109.563 96.5377 108.901 95.6339C108.239 94.7219 107.387 94.076 106.344 93.6962C105.627 93.4355 104.958 93.3948 104.335 93.5741C103.72 93.7562 103.221 94.1383 102.84 94.7203C102.466 95.2969 102.279 96.0533 102.279 96.9896V108.921L99.5228 107.918Z" fill="white"/>
<path d="M79.6249 101.322C77.9164 100.7 76.4081 99.6916 75.1 98.2969C73.7919 96.8928 72.7686 95.2135 72.03 93.2591C71.2914 91.2952 70.9221 89.1579 70.9221 86.8473C70.9221 84.5556 71.2914 82.7014 72.03 81.2846C72.7686 79.8679 73.7963 78.9399 75.1133 78.5006C76.4303 78.0614 77.952 78.156 79.6783 78.7843C81.0131 79.2701 82.0676 79.8907 82.8418 80.646C83.6249 81.395 84.2211 82.1423 84.6304 82.8879C85.0486 83.6272 85.3734 84.2284 85.6048 84.6914L85.8718 84.7885V74.0499L89.0219 75.1965V104.287L85.9785 103.18V99.8274L85.6048 99.6914C85.3734 100.005 85.0442 100.387 84.6171 100.838C84.1899 101.279 83.5804 101.592 82.7884 101.777C81.9964 101.953 80.9419 101.801 79.6249 101.322ZM80.0521 98.4658C81.3157 98.9257 82.3835 98.964 83.2556 98.5806C84.1276 98.1878 84.7906 97.449 85.2444 96.3642C85.6982 95.2699 85.9251 93.8989 85.9251 92.2512C85.9251 90.6224 85.7027 89.1162 85.2578 87.7327C84.8128 86.3397 84.1543 85.1436 83.2823 84.1443C82.4102 83.1356 81.3335 82.3981 80.0521 81.9317C78.7173 81.4459 77.605 81.4056 76.7151 81.8109C75.8341 82.21 75.1712 82.9488 74.7263 84.0274C74.2902 85.0997 74.0722 86.4029 74.0722 87.937C74.0722 89.4901 74.2947 90.982 74.7396 92.4129C75.1934 93.8376 75.8608 95.0843 76.7418 96.153C77.6316 97.2155 78.7351 97.9865 80.0521 98.4658Z" fill="white"/>
</svg>
